<svg xmlns="http://www.w3.org/2000/svg" width="52.41" height="36" viewBox="0 0 52.41 36"><g fill-rule="evenodd" clip-rule="evenodd"><path d="M50.355 7.882c.268.236.05.802.06 1.028-.067-.01-.106.013-.117.06-.23-.17-.193-.584.058-.665-.052-.048-.035-.165-.12-.18.15-.108.04-.1.12-.243zM17.716 8.79c.483.09 1.464-.183 1.693.24-.24.312-1.357.072-1.694-.24zM3.393 9.15c-.066.237-.47.136-.605.304-.17-.27.37-.4.605-.303zM48.662 9.575c.216.007.22.223.484.18-.163.078-.273.21-.484.242-.042-.055-.107-.09-.18-.12-.03-.19.162-.16.18-.302zM19.59 10.118c.04.222.084.44.06.725-2.148.178-3.544.932-5.862.727.59-.438 1.368-.667 2.296-.846.73-.142 1.537.026 2.177-.122.493-.114.784-.79 1.33-.484zM9.8 10.542c-.21.324-.723.045-1.088.06.173-.296.793-.16 1.088-.06zM8.59 10.542c-1.644.31-3.76.47-5.318.666-.154.076.057.295-.06.3-.293-.108-.465-.34-.543-.665 1.587-.01 4.022-.522 5.92-.3zM12.64 10.482c.034.173.043.104.12.3-1 .15-2.082-.085-2.9-.18.77-.22 1.832.015 2.78-.12zM14.815 10.724c-.147.276-.608.37-.907.18.083-.257.688-.257.907-.18zM22.734 10.724c.054.045.137.065.242.06.048.21-.09.233-.06.424-.182-.044-.204-.243-.182-.484zM12.82 11.328c-.427.238-.98.58-1.57.483-.323-.053-.54-.425-.846-.302.817-.24 1.562-.282 2.417-.18zM8.59 11.932c-1.238.186-2.53.15-3.566-.362 1.25-.31 2.367.083 3.567.362zM3.453 11.508c.154.007.233.088.242.242-.154-.007-.235-.088-.242-.242zM4.056 11.87c.506.102.94.27 1.15.667-.576-.03-.88-.328-1.15-.666zM13.486 12.053c-1.307.766-3.387.7-4.958.907 1.654-.263 3.188-.964 4.958-.907zM20.92 13.14c-.32.116-.702.368-1.088.362-.132 0-.29-.16-.423-.18-.947-.15-1.86.658-2.84.424.828-.414 2.16-.805 3.202-.967.4-.064.996-.126 1.148.36zM18.686 13.685c.125.033.127.094.06.182-.526.137-.837.492-1.45.543-.124.22-.378.31-.605.424-.756.405-1.61 1.307-2.598 1.088.164-.523.923-.55 1.452-.787.54-.242 1.052-.66 1.63-.785.083-.06.123-.162.183-.243.464-.12.893-.27 1.33-.422zM38.146 16.284c-.57.083-.613-.353-1.15-.303.287-.123.985-.058 1.15.304zM16.085 15.922c-.806.955-2.373 2.017-3.988 1.57.122-.49.65-.186.967-.3.23-.087.317-.368.543-.487.265-.136.756-.15 1.15-.3.505-.195.826-.4 1.328-.483z"/><path d="M10.343 16.042c.488.218 1.26.15 1.693.423.398-.22 1.07-.193 1.51 0-.156.637-.735.317-1.33.24-.662-.08-1.56.114-1.874-.3v-.363zM30.833 33.39c.323.146-.1.504-.24.423-.16.32-.08.684-.366.967-.228.088-.114-.167-.302-.12.055-.392.13-.443 0-.788.09-.116.423-.3.607-.12.157-.065.125-.318.3-.36zM31.318 33.87c.12.105.075-.005.24 0-.056.127-.093.27-.18.36-.063-.034-.064-.135-.182-.118.03-.087.09-.152.122-.24zM28.295 34.842c.126-.026.16.037.24.06-.007.148-.09.233-.24.24v-.3z"/><path d="M48.723 6.613c.564-.11.782-.085 1.21.18.724-.194 2.163.197 2.477.605-.305-.148-.58-.05-.968-.36-.07.276 0 .483.364.542-.337.12-.768-.208-1.15-.424-.536.128-1.047-.214-1.388-.24-.28-.052-.064.094-.182.12-.417-.352-1.097-.145-2.235-.18-1.9-.063-3.663.02-5.623.12-2.946.146-5.906.366-8.097 1.208.066.277-.057.375.06.604.885.61 2.393.774 3.746.725.233.374.836.374.907.907 1.22-.395 2.76.12 4.172-.242.32.136 1.104.233 1.328-.06.548.185 1.472.18 1.876-.122.186-.006.333.027.42.12.375-.25.958-.416 1.33-.06.372 0 .61-.537.97-.18-.01.308-.516.51-.73.24-.174.247-.56.287-.845.425-1.372-.174-3.12-.012-4.35.122-.495-.233-.84-.003-1.332.06.756.56 2.246.295 3.082.423-.038.413-.92-.164-.967.242-.14.02-.065-.175-.18-.18-.07.274-.814.237-.967.06-.827.5-1.916.265-2.9.18.097.204.424.182.604.303-.335.2-.785.02-1.15-.06-1.414-.318-2.813-.605-3.748-1.33-.74-.064-1.055-.556-1.632-.786-.637.365.056.705.727 1.087.427.244.715.547 1.028.726 1.523.875 3.42 1.022 5.26 1.21.853.085 1.302.396 2.176.3.11.07-.034.395.24.303.198-.09-.2-.07-.12-.242.175-.132.543-.05.664.06-.015.107-.104.138-.24.12.067.154.266.176.482.182.163-.1-.136-.36.12-.422.302.084.15.618.604.544.047-.287-.403-.08-.3-.424.608-.322.322.658.904.363-.13-.11-.427-.055-.362-.362 2.124-.077 4.07-.503 5.682-1.208.636-1.053 2.14-1.57 1.874-2.9.006-.156.227-.098.302-.182-.09-.09-.27-.092-.242-.303.2-.11.317.048.484-.12-.164.28-.066.127.062.36-.013.17-.106.26-.304.243-.027.944-.475 2.34-1.026 3.144-.683.244-1.247.607-1.814.966-1.426.224-2.39-.054-3.263.545-.326.045-.467-.097-.786-.063-.16.98.065 2.343-.604 3.145-1.57.795-3.258 2.3-5.742 1.27-.485.018-.278.727-.482 1.028.225.85.856 1.622.907 2.656.015.292-.1.63-.062.908.033.215.173.402.185.605.03.592-.55 2.342-1.15 1.27-.14-.25-.165-.966-.182-1.088-.06-.493-.386-.998-.48-1.454-.123-.56-.14-1.343-.427-1.872-.27-.5-1.27-2.088-1.87-2.055-1.184.068.474 1.38.844 1.874.49.656.942 1.512 1.086 2.356.117.663.06 1.545.122 2.298.044.53.2 1.1.122 1.634-.026.168-.145.312-.183.48-.104.5.183 1.15-.24 1.635-.523-.106-.374-.65-.484-1.15-.14-.62-.563-1.21-.663-1.753-.168-.893-.183-1.837-.424-2.66-.466-.638-.47-1.494-1.33-1.812-.208 1.188.968 1.44 1.09 2.418.06.494-.08 1.13-.122 1.69-.06.79-.078 1.84-.304 2.72-.088.35-.404.647-.482 1.028-.08.388.078.818-.122 1.148.104.243.375 1.328-.24 1.21.04-.446.008-.66.06-1.028-.323.133-.255.83-.242 1.21.006.194.118.384.06.604-.13.068-.245.156-.48.12.062.632-.467.66-.607 1.088-.133-.163-.127-.393 0-.543-.33-.073-.03.494-.36.422-.088.03-.29-.163-.122-.364-.264.075-.367.488-.183.667-.222-.2-.323.225-.725.06-.176-.03-.003-.635-.12-.727-.397.138-.355-.006-.847 0 .022.284.42.187.486.426-.013.376-.178.224-.245.54-.274.005-.002-.21-.06-.36-.1-.075-.325-.156-.423-.058-.146.113.09.314-.06.48-.248.146-.375-.073-.544-.178-.177.132-.096.537-.062.6-.353.168-.62.43-.844.73.184-.28-.233-.332.06-.668-.302-.068-.293.387-.544.18.102.95-.793.902-.845 1.692-.156.068-.296.15-.543.12.088-.903.252-1.72.12-2.295-.972.166-.216 1.706-1.027 2.055-.333-.393-.22-1.23-.543-1.63-.253.31.042 1.173-.364 1.328-.06-.636.127-1.56-.182-2.415-.12-.07-.515.358-.242.54-.167.064-.37-.352-.422-.603-.263.2-.032.895-.303 1.088-.507-.22-.255-1.19-.602-1.572-.278-.08-.533.06-.666-.24-.19-.028-.17.153-.24.24-.303-.22-.437-.614-.727-.845-.42.27-.06 1.115-.3 1.45-.553-.498-.8-1.297-.97-2.176-.496.062-.81-.282-1.027-.663.26-.46-.22-1.098-.12-1.57-.675-.522-.246-1.8-.907-2.36.282-.59-.08-1.19-.303-1.63.287-.388.674-1.63.06-1.996-.45 1.865-.596 4.038-1.086 5.864-.467-.276-.818-1.46-.845-2.237-.13-3.884.886-7.5 3.203-9.065-.56-.157-1.16.422-1.45.785-.768.96-1.163 2.61-1.814 3.626.046.81-.467 1.065-.422 1.875-.345.48-.6 1.054-.967 1.512-.19-.067-.256-.018-.485-.122-.31-.983.327-2.08.182-3.02-.148-.954.404-1.786.725-2.478-.17-.15-.403-.24-.665-.303-.028-.354.358-.288.424-.544-1.126-.192-2.43.404-3.625.12-.977-.23-2.686-1.61-3.142-2.72-.15-.36-.14-.797-.18-1.147-.022-.142-.19-.135-.244-.242-2.216-.43-4.02-.602-5.742-1.45-.056-.407-.423-.502-.664-.726-.292-.69-.533-1.552-.967-2.235-.07-.763.324-1.01.304-1.512.098-.078.327-.158.422-.062-.042-.186-.042-.115 0-.3C2.966 6.617 6.7 6.877 9.74 6.37c.416.246.685-.063 1.27 0-1.635-.195-3.037-.062-4.474 0 1.625-.498 3.705-.798 5.68-.242-.247.164-.47.08-.906.12 2.016.224 4.326.097 6.287.484.274.054.472.343.787.18-.583-.325-.93-1.196-1.634-1.57-.288-.152-.63-.077-.845-.302-.46-.486-1.146-1.628-.785-2.358.995.05 1.487.605 2.354.786 1.547 1.012 2.55 2.57 4.475 3.204-.14-.614.453-1.058.42-1.63-.017-.334-.358-.658-.42-.968-.22-1.07-.025-1.815.543-2.72-.55-.2-1.646-.216-2.42-.363.12-.502.883-.212 1.09-.727 3.61-.157 7.258-.512 11 .3-.857.132-1.875.325-1.995 1.09-.084.55.43 1.19.365 1.874-.087.86-1.057 1.542-.427 2.297.165.16.48.167.607.363.432-.076.488-.768.967-.604.642-.356 1.03-1.156 1.753-1.51.514-.253 1.133-.273 1.632-.546.76-.415 1.185-1.04 1.812-1.57.384 0 .417-.35.848-.303.258 1.225-.73 2.202-1.21 3.083-1.31.282-2.366.817-2.962 1.812.186.385.563.084.845.06.325-.024.658.058 1.03.06.957.01 2.264-.385 3.143 0 .312-.21.763-.017 1.027-.18 1.837.31 4.255-.03 5.623-.242.188-.223.297.14.48.12.786-.106 1.23.103 2.117-.12.195.2.92.15.906.363zM25.575 2.2c.21.05.23-.09.42-.06-.003.41.185.62 0 .908.53.054.4 1.038-.12.787.015-.33.052-.404 0-.667-.89.22-1.623.59-2.174 1.15.62-.024.97-.643 1.572-.483-.2.323-.417.63-.726.844 1.086.098 1.197-.78 2.117-.845.062-.082.057-.227.182-.244.235.35.302.867.664 1.09.267.026.13-.352.36-.362.107.216.134.512.426.542.438-.967-.39-2-.787-2.84-.453.132-.44-.148-.787-.24-.08.622.106 1.3.06 1.69-.086-.513-.437-1.028-.724-1.51.215-.026.33-.15.42-.303-.376.232-.74.177-.905.544zM28.96 4.5c.17-.503-.05-1.53-.485-1.814.03.5-.216 1.782.484 1.814zm-6.287.424c.5.015.602-.366.906-.546-.398.086-.908.06-.907.546zM24.85 6.01c.896.41 1.217-.58 1.27-1.27-.59-.197-.974.78-1.27 1.27zm-5.08 2.72c-.383-.385-.84-.79-1.45-.908-1.452-.283-3.056-.57-4.834-.543-4.214.06-8.978-.44-12.45 1.63.57.028-.468 1.146.18 1.15.082.32-.086.395-.18.542.26.306.364.765.543 1.15.744.117 1.053.673 1.51 1.208.18-.083.264.034.545 0 1.453.75 3.255.61 4.894.785.128-.053.178-.184.363-.18 2.508.08 4.103-.487 6.528-.727.486-.24 1.01-.44 1.51-.605.917-.3 1.743-.68 2.66-.967.15.113.233.293.424.363.06-.95.106-2.037-.243-2.9zm2.842-.363c-.884 1.038-1.027 3.282.303 3.928.23-.246.08-.687 0-.967.237.247.395.572.664.785.06-.08.16-.12.242-.18-.42-1.275-.587-2.945-.664-4.232-.144.002-.18-.103-.364-.06.048.352-.287.317-.182.727zm1.996 4.41c.492-.11.36.403.785.363.532-1.138.03-2.52-.543-3.385-.654-.09-.756-.733-1.09-1.148.007 1.49.417 2.837.848 4.17zm3.687-4.17c-.404.58-.343 1.336-.485 2.056-.183.916-.806 1.726-.785 2.538.39-.034.387-.458.604-.663.2.003.23.172.483.12.36-.343.352-1.057.847-1.27-.09.555-.135 1.157-.24 1.694.96.305 1.612-.66 1.448-1.873-.474-.532-.21-1.435-.786-1.875-.284.176-.04.885-.422.965-.224-.462-.167-1.203-.363-1.69h-.302zm9.307 5.017c-.192-.58-.733-.49-1.33-.664-1.27-.375-2.62-1.033-3.63-1.452-.4.47.47.856.307 1.27-.228-.037-.383-.144-.605-.18-.13.414-.602.488-1.09.542.072.452.612.562.968.786.36.23.668.564 1.03.785.78.48 1.84.925 2.776 1.452.99.558 2.232 1.05 3.264 1.028.227-.006.442-.126.667-.12.282.005.55.22.846.24 1.105.072 1.942-.447 2.66-1.088.017-.338.244-.74.058-1.088-.992.23-1.167 1.697-2.176 1.692-.425-.003-1.014-.628-1.63-.846-.586-.206-1.03-.197-1.27-.664.554-.07.87.094 1.33.12v.303c.41.05.744.18 1.207.18.127-.154.306-.258.302-.543-.466-.177-1.186-.104-1.39-.543.266-.042.685.078.847-.06-1.18-.252-1.977-.882-3.142-1.15zm-17.467-1.39c-.78.134-1.626.447-2.42.665-.795.22-1.604.288-2.355.482-.273.07-.51.276-.786.363-.646.202-1.288.433-1.934.665-.46.165-1.018.437-1.45.544-.956.236-1.322.826-2.116 1.087.12.732.82 1.452 1.51 1.753.427.186 1.195.41 1.632.423.347.012 1.022-.284 1.45-.36.237-.045.632.01.908-.063.425-.11.842-.364 1.39-.603 1.405-.612 3.512-1.218 4.29-2.056.57-.61.706-1.73 1.09-2.357-.252-.332-.773-.394-1.21-.543zm5.983.665c.09-.112.117-.288.12-.483-.126-.055-.177-.186-.362-.183.255.18-.098.64.242.665zm18.134.967c-.01-.11.058-.143.18-.122.042-.162-.125-.117-.18-.18-.036.036-.142.286 0 .302zm-3.206.967c.406.044 1.207.54 1.392.06-.448.112-1.005-.467-1.392-.06zm-10.153.844c-.055.337.538.74.362 1.212.472-.266.346-1.517-.362-1.212zm-.787.846c-.21-.264-.718-.065-.847.123.22.586-.468 1.1-.12 1.632h.302c.185-.237.132-.716.364-.908.044.138.055.31.12.422h.482c.364-.535.582-1 .245-1.752-.473-.127-.283.404-.547.482zm-7.613-.3c-.893-.52-.804 1.17-.544 1.69.61-.013.353-.892.663-1.21-.043.542-.172.82-.18 1.274.276.085.262.462.663.422.05-.165.122-.343.24-.12.18-.308.308-.662.305-1.15-.46.02-.302-.586-.664-.665-.225-.02-.16.244-.423.182.033-.197-.042-.282-.06-.424zM20.86 17.31c.402-.053.504-.69.484-.968h-.242c-.048.33-.37.66-.24.968zm7.253-.06c-.32-.212-.73-.08-1.088 0-.18.164-.094.59-.546.482-.032.088.072.31-.06.302.008-.148.01-.29-.06-.365-.293-.065-.575-.148-.967-.117-.067.718-.257 1.313-.3 2.054.584-.06.378-.91.664-1.27.22.385.125 1.084.482 1.33.198-.303.094-.912.24-1.267.07.334.1.7.183 1.147.17-.05.155.085.303.06.23-.15.1-.662.603-.54.195-.35.103-.985.36-1.272-.046.35.146.577 0 .847.13.034.174.15.366.12.223-.58.72-.79.602-1.57-.212-.116-.613-.294-.785.06zm-4.23.604c.214-.01.242-.202.242-.425-.165.045-.123-.12-.243-.12-.155.163.037.32 0 .546zm.482.905c.167-.042.123.122.244.122.084-.195.15-.41.18-.664-.072-.068-.215-.068-.363-.06-.018.203-.097.345-.062.603zm-1.872 4.23c-.045.843-.158 1.62-.182 2.482.17.11.274.29.544.3.205-1.06.377-2.233.062-3.083-.065.176-.167.317-.423.3zm2.417.366c.02-.26.004-.49-.242-.485-.172.132-.09.515-.483.427-.045.783-.145 1.825-.182 2.415.353-.03.502-.264.726-.423.13.27.05.755.422.786.385-.263.312-.98.725-1.21-.04.445-.17 1.057.06 1.33.23-.175.136-.67.303-.907.078.286.165.56.12.967h.303c.06-.68.098-1.376.12-1.935h.183c-.202-.217-.268-.25-.243-.846-.18 0-.324-.082-.543-.18-.18.04-.016.426-.242.422.044-.368-.097-.55-.06-.907-.577-.456-.61.412-.968.546zm5.196.18c-.047.15.223.42-.06.425-.143-.036.01-.373-.12-.425h-.667c-.243.34-.155 1.014-.423 1.33-.034-.104.074-.354-.06-.36-.382.18-.448-.478-.968-.363V23.9c-.3.077-.297-.147-.545-.12-.06.078-.1.182-.18.24.11.713-.206 1.483.18 1.872.167-.21.084-.682.302-.845.08.163.163.322.242.484.17.047.157-.085.302-.058.103.116 0 .443.302.36.236-.19.16-.683.423-.847.214.414-.2 1.396.122 1.875.327-.577.45-1.358.725-1.996.097.226-.018.664.302.666.186-.137.082-.562.362-.606.174.157.06.29.06.548.72-.113.468-1.187 1.09-1.393.104-.49-.062-.736 0-1.09-.45-.41-1.15.182-1.394.545zm-6.647 2.053c.27-.577.33-1.68.24-2.416-.076-.005-.083-.078-.18-.06-.112.702-.444 2.025-.06 2.475zm.12 2.962c-.075.58-.226 2.227.664 2.24.08-.226.085-.525.302-.606.196.087.057.507.182.664.317-.14.614-1.233.06-1.33-.127.136.028.553-.36.423-.01-.505-.24-1.496-.85-1.39zm5.862.304c-.122-.038-.016-.306-.24-.242-.32.204-.12.93-.605.967-.278-.084-.042-.684-.423-.664-.37.435-.43 1.184-.847 1.574.03-.638-.025-1.187-.18-1.634-.483.708-.733 1.784-.545 2.84.38.058.697.167 1.027.12.243-.38.3-.95.726-1.147.04.443-.07.736-.122 1.084.697-.973 1.96-1.383 1.873-3.14-.35-.343-.366.19-.665.242zm1.692-.242c-.503.642-.812 1.48-1.088 2.355.74-.45 1.152-1.227 1.27-2.298-.078 0-.084-.074-.182-.058zm.665 3.926c-.14-.017-.14-.16-.06-.24-.135-.024-.335.178-.182.24.01-.047.05-.068.12-.06-.017.1.083.164.12.06zm-2.237.063c-.023.275.91.39.664.302-.14-.29-.564-.093-.542-.364-.014.047-.052.07-.122.063zm-2.478 2.055c.115-.315.203-.943-.12-1.21.154.47-.193.855.12 1.21z"/><path d="M52.108 7.398c.117.114.02.222 0 .364.232.088.01-.27.24-.182.1.205-.255.257-.06.363-.046.122-.25-.108-.362-.12-.036.193.217.083.062.24.004.118.224-.093.3.062.01.107-.073.127-.058.242-.103-.082-.205-.16-.425-.12-.03-.422.18-.534.06-.787.02-.083.154-.05.243-.062zM4.843 8.73c-.35.244-.474.342-1.03.36.237-.227.677-.253 1.03-.36zM2.486 9.755c-.142.02-.114.21-.303.182-.136-.227.126-.496.423-.483-.265.095.093.492-.12.3zM49.932 9.635c-.013.633-.645 1.17-.967 1.693-1.27.04-2.323.62-3.326.302-.524.016-1.16.43-2.054.362-.1-.007-.214-.126-.304-.12-.168.012-.326.167-.483.18-.263.023-.6-.14-.905-.12-.57.036-1.13.355-1.693 0-.255-.055-.64.242-.665-.12 1.31-.064 3.35.18 4.472-.484.496.113 1.02.172 1.448.06.572-.148 1.022-.712 1.634-.303.828-.79 2.317-.56 2.84-1.45zM36.876 14.47c.013-.038 1.062-.16 1.27.12-.36.407-.99.15-1.27-.12zM14.09 14.955c-.86.7-2.087 1.01-3.506.724 1.038-.515 2.47-.55 3.506-.725z"/></g></svg>