<?xml version="1.0" encoding="utf-8"?>
<!-- Generator: Adobe Illustrator 14.0.0, SVG Export Plug-In . SVG Version: 6.00 Build 43363)  -->
<!DOCTYPE svg PUBLIC "-//W3C//DTD SVG 1.1//EN" "http://www.w3.org/Graphics/SVG/1.1/DTD/svg11.dtd">
<svg version="1.1" id="Layer_1" xmlns="http://www.w3.org/2000/svg" xmlns:xlink="http://www.w3.org/1999/xlink" x="0px" y="0px"
	 width="52.41px" height="36px" viewBox="0 0 52.41 36" enable-background="new 0 0 52.41 36" xml:space="preserve">
<g>
	<path fill-rule="evenodd" clip-rule="evenodd" d="M50.355,7.882c0.268,0.236,0.051,0.802,0.061,1.028
		c-0.068-0.01-0.107,0.013-0.118,0.061c-0.229-0.171-0.193-0.585,0.058-0.666c-0.052-0.048-0.035-0.165-0.119-0.181
		C50.386,8.017,50.276,8.024,50.355,7.882z"/>
	<path fill-rule="evenodd" clip-rule="evenodd" d="M17.716,8.789c0.483,0.091,1.464-0.182,1.693,0.242
		C19.171,9.342,18.053,9.102,17.716,8.789z"/>
	<path fill-rule="evenodd" clip-rule="evenodd" d="M3.393,9.151C3.327,9.387,2.922,9.286,2.788,9.454
		C2.619,9.184,3.159,9.053,3.393,9.151z"/>
	<path fill-rule="evenodd" clip-rule="evenodd" d="M48.662,9.575c0.216,0.007,0.221,0.223,0.484,0.18
		c-0.163,0.078-0.273,0.21-0.484,0.242c-0.042-0.055-0.107-0.091-0.18-0.121C48.451,9.688,48.644,9.717,48.662,9.575z"/>
	<path fill-rule="evenodd" clip-rule="evenodd" d="M19.589,10.118c0.042,0.222,0.085,0.441,0.062,0.725
		c-2.149,0.178-3.545,0.932-5.863,0.727c0.59-0.438,1.368-0.667,2.296-0.846c0.729-0.142,1.537,0.026,2.177-0.122
		C18.753,10.488,19.044,9.811,19.589,10.118z"/>
	<path fill-rule="evenodd" clip-rule="evenodd" d="M9.8,10.542c-0.211,0.324-0.723,0.045-1.088,0.06
		C8.885,10.306,9.505,10.441,9.8,10.542z"/>
	<path fill-rule="evenodd" clip-rule="evenodd" d="M8.591,10.542c-1.645,0.31-3.762,0.469-5.319,0.666
		c-0.154,0.076,0.057,0.295-0.06,0.301c-0.293-0.109-0.465-0.341-0.543-0.666C4.257,10.834,6.692,10.321,8.591,10.542z"/>
	<path fill-rule="evenodd" clip-rule="evenodd" d="M12.64,10.482c0.034,0.173,0.043,0.104,0.121,0.301
		c-1,0.149-2.083-0.086-2.901-0.182C10.629,10.383,11.692,10.617,12.64,10.482z"/>
	<path fill-rule="evenodd" clip-rule="evenodd" d="M14.815,10.724c-0.147,0.276-0.608,0.371-0.907,0.181
		C13.991,10.647,14.596,10.647,14.815,10.724z"/>
	<path fill-rule="evenodd" clip-rule="evenodd" d="M22.734,10.724c0.054,0.045,0.137,0.065,0.242,0.06
		c0.048,0.21-0.091,0.233-0.061,0.424C22.734,11.164,22.712,10.965,22.734,10.724z"/>
	<path fill-rule="evenodd" clip-rule="evenodd" d="M12.821,11.328c-0.428,0.238-0.981,0.581-1.571,0.483
		c-0.323-0.054-0.539-0.426-0.846-0.303C11.221,11.267,11.966,11.226,12.821,11.328z"/>
	<path fill-rule="evenodd" clip-rule="evenodd" d="M8.591,11.932c-1.239,0.186-2.53,0.151-3.567-0.362
		C6.275,11.26,7.391,11.653,8.591,11.932z"/>
	<path fill-rule="evenodd" clip-rule="evenodd" d="M3.453,11.508c0.154,0.007,0.233,0.088,0.242,0.242
		C3.541,11.743,3.46,11.662,3.453,11.508z"/>
	<path fill-rule="evenodd" clip-rule="evenodd" d="M4.056,11.871c0.506,0.101,0.941,0.27,1.149,0.666
		C4.63,12.506,4.325,12.209,4.056,11.871z"/>
	<path fill-rule="evenodd" clip-rule="evenodd" d="M13.486,12.053c-1.307,0.766-3.387,0.699-4.958,0.907
		C10.182,12.697,11.716,11.996,13.486,12.053z"/>
	<path fill-rule="evenodd" clip-rule="evenodd" d="M20.92,13.141c-0.321,0.115-0.702,0.367-1.088,0.361
		c-0.132,0-0.29-0.159-0.423-0.18c-0.946-0.151-1.858,0.658-2.839,0.424c0.828-0.414,2.161-0.805,3.202-0.967
		C20.172,12.716,20.768,12.654,20.92,13.141z"/>
	<path fill-rule="evenodd" clip-rule="evenodd" d="M18.686,13.685c0.125,0.033,0.127,0.094,0.06,0.182
		c-0.526,0.137-0.837,0.492-1.45,0.543c-0.124,0.22-0.378,0.309-0.605,0.424c-0.757,0.405-1.612,1.307-2.599,1.088
		c0.164-0.523,0.923-0.551,1.452-0.787c0.539-0.242,1.052-0.66,1.631-0.785c0.082-0.061,0.122-0.162,0.182-0.243
		C17.821,13.988,18.25,13.836,18.686,13.685z"/>
	<path fill-rule="evenodd" clip-rule="evenodd" d="M38.146,16.284c-0.569,0.083-0.613-0.353-1.15-0.303
		C37.283,15.857,37.981,15.922,38.146,16.284z"/>
	<path fill-rule="evenodd" clip-rule="evenodd" d="M16.085,15.922c-0.806,0.955-2.373,2.017-3.988,1.571
		c0.122-0.491,0.651-0.187,0.967-0.302c0.23-0.086,0.317-0.367,0.543-0.486c0.265-0.136,0.756-0.149,1.149-0.299
		C15.262,16.21,15.583,16.004,16.085,15.922z"/>
	<path fill-rule="evenodd" clip-rule="evenodd" d="M10.343,16.042c0.488,0.218,1.259,0.151,1.693,0.423
		c0.398-0.22,1.07-0.193,1.511,0c-0.157,0.637-0.736,0.317-1.331,0.24c-0.662-0.081-1.561,0.114-1.874-0.299
		C10.343,16.284,10.343,16.163,10.343,16.042z"/>
	<path fill-rule="evenodd" clip-rule="evenodd" d="M30.833,33.391c0.323,0.145-0.099,0.503-0.241,0.422
		c-0.159,0.321-0.08,0.684-0.365,0.967c-0.228,0.088-0.114-0.167-0.302-0.121c0.055-0.391,0.13-0.442,0-0.787
		c0.089-0.116,0.423-0.299,0.607-0.121C30.689,33.687,30.657,33.434,30.833,33.391z"/>
	<path fill-rule="evenodd" clip-rule="evenodd" d="M31.318,33.871c0.119,0.104,0.075-0.006,0.241,0
		c-0.057,0.126-0.094,0.27-0.182,0.36c-0.062-0.035-0.063-0.136-0.181-0.119C31.226,34.025,31.285,33.96,31.318,33.871z"/>
	<path fill-rule="evenodd" clip-rule="evenodd" d="M28.295,34.842c0.126-0.026,0.16,0.037,0.241,0.059
		c-0.008,0.149-0.09,0.234-0.241,0.24C28.295,35.039,28.295,34.938,28.295,34.842z"/>
	<path fill-rule="evenodd" clip-rule="evenodd" d="M48.723,6.613c0.564-0.11,0.782-0.085,1.209,0.181
		c0.725-0.195,2.164,0.196,2.478,0.604c-0.305-0.148-0.581-0.05-0.968-0.361c-0.071,0.277,0,0.484,0.364,0.543
		c-0.337,0.121-0.768-0.208-1.149-0.424c-0.537,0.128-1.048-0.214-1.389-0.241c-0.28-0.051-0.064,0.095-0.182,0.122
		c-0.417-0.353-1.097-0.146-2.235-0.182c-1.902-0.062-3.664,0.022-5.624,0.121c-2.946,0.146-5.906,0.366-8.097,1.208
		c0.066,0.277-0.057,0.375,0.061,0.604c0.884,0.609,2.392,0.774,3.745,0.725c0.233,0.374,0.836,0.374,0.907,0.907
		c1.22-0.395,2.761,0.121,4.172-0.242c0.321,0.136,1.104,0.233,1.328-0.061c0.548,0.186,1.472,0.18,1.876-0.121
		c0.187-0.006,0.334,0.027,0.42,0.121c0.376-0.25,0.959-0.417,1.331-0.06c0.372-0.001,0.611-0.538,0.969-0.182
		c-0.009,0.309-0.515,0.51-0.729,0.242c-0.174,0.246-0.559,0.286-0.845,0.424c-1.372-0.175-3.119-0.013-4.351,0.121
		c-0.494-0.233-0.838-0.003-1.331,0.061c0.756,0.559,2.246,0.294,3.082,0.422c-0.038,0.413-0.92-0.164-0.967,0.242
		c-0.139,0.019-0.065-0.175-0.18-0.18c-0.07,0.274-0.814,0.237-0.967,0.059c-0.828,0.502-1.917,0.266-2.902,0.182
		c0.098,0.203,0.425,0.181,0.605,0.302c-0.335,0.199-0.785,0.021-1.149-0.06c-1.415-0.318-2.814-0.605-3.749-1.331
		c-0.74-0.063-1.055-0.555-1.632-0.785c-0.637,0.365,0.056,0.705,0.727,1.087c0.426,0.243,0.714,0.546,1.027,0.725
		c1.523,0.875,3.419,1.022,5.26,1.21c0.853,0.085,1.302,0.396,2.176,0.301c0.11,0.07-0.034,0.394,0.24,0.302
		c0.198-0.09-0.201-0.07-0.12-0.241c0.175-0.132,0.543-0.051,0.664,0.06c-0.015,0.107-0.104,0.138-0.24,0.121
		c0.067,0.153,0.266,0.175,0.482,0.181c0.163-0.1-0.136-0.361,0.12-0.422c0.302,0.084,0.149,0.618,0.604,0.544
		c0.047-0.287-0.403-0.081-0.299-0.424c0.607-0.322,0.321,0.658,0.903,0.363c-0.13-0.111-0.427-0.056-0.362-0.363
		c2.124-0.077,4.07-0.503,5.682-1.208c0.636-1.053,2.139-1.569,1.874-2.901c0.006-0.155,0.227-0.097,0.302-0.181
		c-0.09-0.091-0.271-0.092-0.242-0.303c0.199-0.11,0.317,0.048,0.484-0.121c-0.164,0.28-0.066,0.128,0.062,0.362
		c-0.013,0.169-0.106,0.258-0.304,0.242c-0.027,0.944-0.475,2.34-1.026,3.144c-0.683,0.244-1.247,0.607-1.814,0.966
		c-1.426,0.224-2.391-0.054-3.263,0.545c-0.327,0.045-0.468-0.097-0.787-0.063c-0.161,0.98,0.065,2.343-0.604,3.145
		c-1.571,0.795-3.258,2.3-5.742,1.269c-0.485,0.019-0.278,0.728-0.482,1.029c0.225,0.85,0.856,1.622,0.907,2.656
		c0.015,0.293-0.101,0.632-0.062,0.909c0.032,0.215,0.172,0.402,0.184,0.605c0.029,0.592-0.549,2.342-1.149,1.271
		c-0.142-0.252-0.166-0.967-0.183-1.089c-0.06-0.493-0.386-0.998-0.481-1.454c-0.122-0.562-0.139-1.344-0.426-1.873
		c-0.27-0.501-1.271-2.088-1.871-2.055c-1.183,0.068,0.475,1.381,0.845,1.874c0.49,0.656,0.942,1.512,1.086,2.356
		c0.117,0.663,0.061,1.545,0.122,2.298c0.044,0.528,0.2,1.098,0.122,1.633c-0.026,0.168-0.145,0.312-0.183,0.479
		c-0.104,0.5,0.183,1.151-0.24,1.636c-0.523-0.105-0.374-0.65-0.484-1.148c-0.139-0.62-0.563-1.211-0.663-1.754
		c-0.168-0.893-0.183-1.837-0.424-2.659c-0.466-0.639-0.469-1.495-1.33-1.813c-0.208,1.188,0.968,1.441,1.089,2.418
		c0.061,0.494-0.08,1.13-0.121,1.69c-0.059,0.79-0.078,1.839-0.304,2.72c-0.088,0.349-0.404,0.647-0.482,1.028
		c-0.081,0.387,0.078,0.817-0.122,1.147c0.104,0.243,0.375,1.328-0.24,1.211c0.039-0.447,0.008-0.66,0.061-1.029
		c-0.324,0.133-0.256,0.829-0.243,1.21c0.006,0.194,0.118,0.384,0.061,0.604c-0.132,0.068-0.246,0.156-0.482,0.12
		c0.063,0.632-0.466,0.66-0.606,1.088c-0.133-0.163-0.127-0.393,0-0.543c-0.331-0.072-0.029,0.495-0.36,0.423
		c-0.088,0.029-0.291-0.163-0.122-0.364c-0.264,0.075-0.367,0.488-0.183,0.667c-0.222-0.199-0.323,0.225-0.725,0.06
		c-0.176-0.03-0.003-0.635-0.121-0.727c-0.396,0.138-0.354-0.006-0.846,0c0.022,0.284,0.42,0.187,0.486,0.426
		c-0.013,0.376-0.178,0.224-0.245,0.541c-0.275,0.004-0.003-0.212-0.06-0.361c-0.1-0.075-0.326-0.156-0.424-0.058
		c-0.146,0.113,0.089,0.314-0.059,0.481c-0.249,0.145-0.376-0.074-0.545-0.179c-0.177,0.132-0.096,0.537-0.062,0.601
		c-0.354,0.167-0.62,0.428-0.845,0.73c0.184-0.282-0.233-0.333,0.061-0.669c-0.303-0.068-0.294,0.387-0.545,0.179
		c0.102,0.95-0.793,0.903-0.845,1.693c-0.156,0.068-0.296,0.15-0.543,0.121c0.088-0.904,0.252-1.722,0.121-2.296
		c-0.973,0.166-0.217,1.706-1.028,2.055c-0.333-0.393-0.219-1.229-0.543-1.631c-0.253,0.312,0.042,1.174-0.364,1.329
		c-0.06-0.636,0.127-1.56-0.182-2.415c-0.121-0.07-0.515,0.358-0.242,0.541c-0.167,0.063-0.369-0.353-0.422-0.604
		c-0.263,0.199-0.032,0.895-0.303,1.088c-0.508-0.219-0.256-1.191-0.603-1.572c-0.278-0.081-0.533,0.06-0.666-0.24
		c-0.19-0.028-0.17,0.153-0.241,0.24c-0.302-0.221-0.436-0.614-0.726-0.845c-0.42,0.269-0.06,1.115-0.301,1.45
		c-0.552-0.498-0.799-1.297-0.97-2.176c-0.495,0.062-0.808-0.282-1.026-0.663c0.259-0.461-0.219-1.098-0.121-1.571
		c-0.674-0.521-0.245-1.8-0.906-2.358c0.281-0.592-0.081-1.19-0.304-1.632c0.287-0.387,0.674-1.63,0.061-1.995
		c-0.451,1.865-0.597,4.038-1.087,5.864c-0.468-0.276-0.819-1.46-0.846-2.237c-0.129-3.884,0.886-7.501,3.203-9.065
		c-0.559-0.157-1.16,0.422-1.45,0.785c-0.768,0.961-1.163,2.61-1.814,3.626c0.046,0.81-0.467,1.064-0.422,1.874
		c-0.345,0.48-0.599,1.054-0.967,1.512c-0.19-0.067-0.256-0.018-0.485-0.122c-0.309-0.983,0.327-2.08,0.182-3.021
		c-0.148-0.953,0.404-1.785,0.725-2.477c-0.17-0.151-0.403-0.24-0.665-0.303c-0.028-0.354,0.358-0.288,0.424-0.544
		c-1.126-0.192-2.43,0.404-3.625,0.12c-0.978-0.23-2.687-1.611-3.143-2.719c-0.149-0.361-0.141-0.798-0.181-1.148
		c-0.021-0.142-0.188-0.135-0.243-0.242c-2.216-0.431-4.02-0.603-5.742-1.451c-0.056-0.407-0.423-0.502-0.664-0.726
		c-0.292-0.691-0.533-1.552-0.967-2.235c-0.07-0.762,0.323-1.008,0.303-1.511c0.098-0.078,0.327-0.158,0.422-0.062
		c-0.042-0.186-0.042-0.115,0-0.301C2.965,6.618,6.7,6.878,9.74,6.372c0.416,0.246,0.685-0.063,1.269,0
		c-1.634-0.195-3.036-0.062-4.473,0c1.625-0.498,3.705-0.798,5.681-0.242c-0.248,0.164-0.472,0.08-0.907,0.121
		c2.016,0.223,4.326,0.096,6.287,0.483c0.274,0.054,0.472,0.343,0.787,0.181c-0.583-0.326-0.929-1.197-1.634-1.571
		c-0.288-0.152-0.631-0.077-0.845-0.302c-0.46-0.486-1.146-1.628-0.785-2.358c0.995,0.051,1.487,0.605,2.354,0.786
		c1.547,1.012,2.55,2.571,4.475,3.204c-0.138-0.614,0.454-1.058,0.422-1.631c-0.018-0.333-0.359-0.657-0.422-0.967
		c-0.219-1.07-0.024-1.815,0.544-2.721c-0.55-0.199-1.646-0.215-2.42-0.362c0.12-0.502,0.883-0.212,1.089-0.727
		c3.611-0.157,7.259-0.512,11.002,0.301c-0.858,0.131-1.876,0.324-1.996,1.089c-0.084,0.55,0.429,1.19,0.365,1.874
		c-0.087,0.86-1.057,1.542-0.427,2.297c0.165,0.161,0.479,0.167,0.607,0.363c0.432-0.076,0.488-0.768,0.967-0.604
		c0.642-0.356,1.029-1.156,1.753-1.51c0.514-0.253,1.133-0.273,1.632-0.546c0.759-0.415,1.185-1.039,1.812-1.571
		c0.384,0.001,0.417-0.35,0.848-0.302c0.258,1.225-0.729,2.202-1.209,3.083c-1.311,0.282-2.367,0.817-2.963,1.812
		c0.186,0.385,0.563,0.084,0.845,0.061c0.325-0.025,0.658,0.057,1.029,0.06c0.958,0.01,2.265-0.386,3.144,0
		c0.311-0.21,0.762-0.018,1.026-0.181c1.837,0.311,4.255-0.03,5.623-0.242c0.188-0.223,0.297,0.141,0.479,0.121
		c0.787-0.107,1.231,0.102,2.118-0.121C48.012,6.45,48.738,6.4,48.723,6.613z M25.575,2.201c0.209,0.048,0.231-0.09,0.42-0.06
		c-0.003,0.408,0.185,0.62,0,0.907c0.53,0.054,0.401,1.038-0.119,0.787c0.014-0.329,0.051-0.404,0-0.667
		c-0.89,0.219-1.624,0.591-2.175,1.15c0.62-0.024,0.969-0.643,1.571-0.483c-0.2,0.323-0.417,0.629-0.726,0.844
		c1.086,0.099,1.197-0.778,2.117-0.844c0.062-0.082,0.057-0.227,0.182-0.244c0.235,0.35,0.302,0.866,0.664,1.088
		c0.268,0.027,0.132-0.351,0.362-0.361c0.106,0.216,0.133,0.512,0.425,0.542c0.438-0.967-0.391-1.999-0.787-2.839
		c-0.452,0.131-0.438-0.149-0.786-0.242c-0.079,0.623,0.106,1.302,0.061,1.691c-0.087-0.513-0.438-1.028-0.725-1.511
		c0.216-0.025,0.331-0.15,0.42-0.302C26.104,1.889,25.74,1.834,25.575,2.201z M28.959,4.498c0.17-0.503-0.048-1.529-0.484-1.814
		C28.505,3.185,28.259,4.466,28.959,4.498z M22.673,4.922c0.5,0.015,0.602-0.366,0.906-0.546
		C23.182,4.462,22.672,4.436,22.673,4.922z M24.85,6.009c0.896,0.411,1.217-0.579,1.269-1.27C25.529,4.543,25.146,5.519,24.85,6.009
		z M19.771,8.729c-0.384-0.384-0.842-0.789-1.45-0.907c-1.453-0.283-3.057-0.57-4.835-0.543C9.272,7.339,4.508,6.84,1.036,8.91
		c0.569,0.028-0.468,1.146,0.18,1.149c0.082,0.321-0.086,0.396-0.18,0.543c0.259,0.306,0.364,0.765,0.543,1.149
		c0.745,0.118,1.054,0.674,1.51,1.209c0.18-0.083,0.265,0.034,0.546,0c1.453,0.751,3.255,0.61,4.894,0.785
		c0.129-0.053,0.179-0.184,0.364-0.181c2.508,0.081,4.103-0.486,6.528-0.726c0.485-0.241,1.01-0.44,1.51-0.605
		c0.916-0.3,1.742-0.681,2.659-0.967c0.151,0.113,0.233,0.293,0.424,0.363C20.073,10.679,20.12,9.593,19.771,8.729z M22.612,8.367
		c-0.884,1.038-1.027,3.282,0.303,3.928c0.229-0.246,0.081-0.687,0-0.967c0.237,0.247,0.395,0.572,0.664,0.785
		c0.06-0.081,0.162-0.121,0.243-0.181c-0.419-1.274-0.587-2.944-0.664-4.231c-0.144,0.001-0.179-0.104-0.364-0.062
		C22.842,7.992,22.507,7.957,22.612,8.367z M24.608,12.778c0.492-0.11,0.361,0.402,0.785,0.362c0.532-1.138,0.031-2.521-0.543-3.385
		c-0.654-0.091-0.756-0.733-1.089-1.148C23.767,10.097,24.177,11.444,24.608,12.778z M28.295,8.607
		c-0.404,0.579-0.343,1.336-0.485,2.056c-0.183,0.916-0.806,1.726-0.785,2.538c0.39-0.035,0.387-0.459,0.604-0.664
		c0.2,0.003,0.232,0.172,0.484,0.121c0.361-0.344,0.352-1.058,0.847-1.27c-0.091,0.554-0.135,1.156-0.241,1.693
		c0.96,0.304,1.613-0.661,1.449-1.874c-0.474-0.532-0.211-1.435-0.786-1.875c-0.284,0.176-0.04,0.885-0.422,0.965
		c-0.224-0.462-0.167-1.203-0.363-1.691C28.495,8.607,28.396,8.607,28.295,8.607z M37.602,13.624
		c-0.192-0.579-0.733-0.489-1.33-0.664c-1.271-0.375-2.621-1.033-3.629-1.452c-0.402,0.471,0.47,0.856,0.306,1.27
		c-0.227-0.037-0.382-0.144-0.604-0.181c-0.13,0.415-0.602,0.489-1.09,0.543c0.072,0.452,0.612,0.562,0.968,0.786
		c0.36,0.229,0.668,0.564,1.029,0.785c0.782,0.48,1.84,0.924,2.777,1.451c0.992,0.558,2.233,1.051,3.265,1.028
		c0.227-0.006,0.442-0.126,0.667-0.121c0.281,0.006,0.55,0.222,0.845,0.242c1.105,0.071,1.942-0.448,2.661-1.089
		c0.016-0.338,0.243-0.741,0.057-1.088c-0.992,0.229-1.167,1.697-2.176,1.692c-0.425-0.003-1.014-0.628-1.63-0.846
		c-0.586-0.206-1.029-0.197-1.27-0.664c0.554-0.071,0.871,0.094,1.329,0.121c0,0.101,0,0.201,0,0.302
		c0.411,0.051,0.745,0.182,1.208,0.182c0.127-0.155,0.306-0.259,0.302-0.544c-0.466-0.177-1.186-0.104-1.389-0.543
		c0.265-0.042,0.684,0.078,0.846-0.061C39.565,14.522,38.767,13.892,37.602,13.624z M20.135,12.234
		c-0.779,0.134-1.626,0.447-2.419,0.665c-0.796,0.22-1.605,0.289-2.356,0.483c-0.273,0.07-0.509,0.276-0.786,0.363
		c-0.646,0.202-1.288,0.433-1.934,0.665c-0.46,0.165-1.018,0.437-1.45,0.544c-0.956,0.236-1.322,0.826-2.116,1.087
		c0.12,0.731,0.819,1.451,1.51,1.752c0.427,0.186,1.195,0.411,1.632,0.423c0.347,0.012,1.022-0.284,1.451-0.361
		c0.236-0.044,0.631,0.011,0.907-0.062c0.425-0.11,0.842-0.364,1.39-0.603c1.405-0.612,3.512-1.218,4.291-2.056
		c0.57-0.611,0.705-1.73,1.089-2.357C21.092,12.445,20.571,12.383,20.135,12.234z M26.118,12.899
		c0.089-0.111,0.117-0.287,0.121-0.482c-0.127-0.055-0.178-0.186-0.363-0.183C26.131,12.414,25.778,12.875,26.118,12.899z
		 M44.252,13.867c-0.009-0.109,0.058-0.143,0.181-0.122c0.041-0.162-0.126-0.117-0.181-0.181
		C44.216,13.601,44.11,13.851,44.252,13.867z M41.046,14.834c0.406,0.044,1.207,0.54,1.392,0.06
		C41.99,15.006,41.433,14.427,41.046,14.834z M30.893,15.678c-0.055,0.337,0.538,0.74,0.362,1.212
		C31.727,16.624,31.601,15.373,30.893,15.678z M30.106,16.524c-0.209-0.264-0.718-0.065-0.847,0.123
		c0.22,0.586-0.467,1.101-0.118,1.632c0.101,0,0.2,0,0.301,0c0.185-0.236,0.132-0.715,0.364-0.907
		c0.044,0.138,0.055,0.31,0.119,0.422c0.161,0,0.322,0,0.483,0c0.364-0.535,0.582-1,0.245-1.752
		C30.18,15.915,30.37,16.446,30.106,16.524z M22.493,16.223c-0.893-0.518-0.804,1.171-0.544,1.692
		c0.61-0.014,0.354-0.893,0.664-1.21c-0.043,0.541-0.172,0.819-0.181,1.273c0.277,0.085,0.263,0.462,0.664,0.422
		c0.049-0.165,0.122-0.343,0.241-0.121c0.179-0.307,0.307-0.661,0.304-1.149c-0.462,0.02-0.303-0.586-0.665-0.665
		c-0.225-0.021-0.159,0.244-0.423,0.182C22.586,16.45,22.511,16.365,22.493,16.223z M20.861,17.312
		c0.401-0.053,0.503-0.691,0.483-0.968c-0.08,0-0.162,0-0.242,0C21.054,16.673,20.733,17.003,20.861,17.312z M28.113,17.251
		c-0.32-0.211-0.729-0.079-1.088,0c-0.179,0.165-0.094,0.59-0.546,0.483c-0.031,0.088,0.073,0.311-0.06,0.302
		c0.009-0.148,0.01-0.291-0.06-0.365c-0.292-0.066-0.574-0.149-0.966-0.118c-0.067,0.718-0.257,1.313-0.301,2.054
		c0.585-0.06,0.379-0.91,0.665-1.269c0.219,0.384,0.125,1.083,0.482,1.33c0.199-0.304,0.095-0.913,0.24-1.268
		c0.07,0.334,0.101,0.7,0.184,1.147c0.169-0.051,0.155,0.085,0.303,0.061c0.23-0.15,0.1-0.663,0.603-0.542
		c0.196-0.349,0.104-0.984,0.362-1.271c-0.047,0.35,0.145,0.577,0,0.847c0.129,0.034,0.173,0.149,0.365,0.12
		c0.223-0.58,0.721-0.789,0.602-1.57C28.686,17.076,28.285,16.898,28.113,17.251z M23.882,17.856
		c0.215-0.01,0.243-0.202,0.243-0.425c-0.165,0.044-0.123-0.12-0.243-0.12C23.727,17.473,23.919,17.63,23.882,17.856z
		 M24.365,18.761c0.167-0.043,0.123,0.121,0.244,0.121c0.085-0.195,0.15-0.411,0.18-0.664c-0.071-0.068-0.214-0.068-0.362-0.06
		C24.409,18.361,24.33,18.503,24.365,18.761z M22.493,22.991c-0.045,0.842-0.158,1.618-0.182,2.481
		c0.17,0.11,0.273,0.289,0.543,0.299c0.205-1.058,0.377-2.232,0.062-3.082C22.851,22.866,22.749,23.007,22.493,22.991z
		 M24.91,23.356c0.02-0.261,0.004-0.49-0.242-0.485c-0.172,0.131-0.091,0.514-0.483,0.426c-0.045,0.783-0.145,1.825-0.182,2.415
		c0.353-0.03,0.502-0.264,0.726-0.423c0.132,0.271,0.051,0.756,0.423,0.787c0.385-0.263,0.312-0.98,0.725-1.211
		c-0.04,0.446-0.17,1.058,0.061,1.332c0.23-0.176,0.135-0.672,0.302-0.908c0.078,0.287,0.165,0.562,0.12,0.968
		c0.102,0,0.203,0,0.303,0c0.059-0.68,0.098-1.376,0.121-1.935c0.061,0,0.121,0,0.182,0c-0.202-0.217-0.268-0.251-0.243-0.846
		c-0.181,0-0.324-0.082-0.543-0.18c-0.179,0.041-0.016,0.426-0.242,0.422c0.044-0.368-0.097-0.55-0.061-0.907
		C25.301,22.354,25.267,23.222,24.91,23.356z M30.106,23.535c-0.047,0.15,0.223,0.42-0.06,0.426
		c-0.143-0.037,0.009-0.374-0.121-0.426c-0.219,0-0.443,0-0.666,0c-0.242,0.339-0.154,1.014-0.422,1.33
		c-0.034-0.104,0.074-0.354-0.061-0.359c-0.381,0.178-0.447-0.479-0.967-0.364c0-0.083,0-0.164,0-0.243
		c-0.299,0.078-0.296-0.146-0.544-0.12c-0.059,0.079-0.099,0.183-0.181,0.242c0.11,0.712-0.205,1.482,0.181,1.871
		c0.167-0.211,0.084-0.682,0.302-0.845c0.08,0.163,0.163,0.322,0.242,0.484c0.172,0.046,0.158-0.086,0.303-0.059
		c0.103,0.116,0,0.443,0.302,0.359c0.236-0.188,0.161-0.682,0.423-0.846c0.214,0.414-0.201,1.396,0.122,1.875
		c0.328-0.577,0.451-1.358,0.726-1.996c0.097,0.226-0.018,0.664,0.302,0.666c0.186-0.137,0.082-0.562,0.362-0.606
		c0.175,0.157,0.06,0.29,0.06,0.548c0.72-0.113,0.469-1.187,1.091-1.393c0.104-0.488-0.062-0.735,0-1.089
		C31.05,22.579,30.349,23.172,30.106,23.535z M23.459,25.589c0.27-0.576,0.33-1.679,0.242-2.415
		c-0.077-0.005-0.084-0.078-0.182-0.059C23.408,23.816,23.076,25.139,23.459,25.589z M23.579,28.552
		c-0.074,0.58-0.225,2.227,0.665,2.239c0.081-0.225,0.085-0.524,0.302-0.605c0.196,0.087,0.057,0.507,0.182,0.664
		c0.317-0.139,0.614-1.233,0.061-1.331c-0.128,0.137,0.027,0.554-0.362,0.424C24.418,29.438,24.187,28.447,23.579,28.552z
		 M29.442,28.856c-0.122-0.038-0.016-0.306-0.24-0.242c-0.32,0.204-0.119,0.929-0.605,0.967c-0.278-0.085-0.042-0.685-0.423-0.665
		c-0.369,0.435-0.429,1.184-0.847,1.574c0.03-0.638-0.025-1.187-0.181-1.634c-0.482,0.708-0.732,1.784-0.544,2.839
		c0.381,0.059,0.697,0.168,1.027,0.121c0.244-0.381,0.302-0.95,0.727-1.147c0.041,0.444-0.07,0.737-0.122,1.085
		c0.697-0.973,1.96-1.383,1.873-3.14C29.756,28.271,29.741,28.804,29.442,28.856z M31.134,28.614
		c-0.503,0.642-0.812,1.48-1.088,2.355c0.739-0.45,1.152-1.226,1.271-2.297C31.238,28.671,31.232,28.598,31.134,28.614z
		 M31.799,32.54c-0.139-0.017-0.139-0.159-0.06-0.24c-0.134-0.024-0.334,0.178-0.181,0.24c0.011-0.047,0.049-0.068,0.121-0.059
		C31.661,32.58,31.761,32.644,31.799,32.54z M29.563,32.603c-0.023,0.275,0.911,0.391,0.664,0.302
		c-0.141-0.289-0.564-0.093-0.542-0.364C29.671,32.587,29.633,32.611,29.563,32.603z M27.085,34.658
		c0.115-0.315,0.203-0.943-0.12-1.209C27.119,33.919,26.772,34.303,27.085,34.658z"/>
	<path fill-rule="evenodd" clip-rule="evenodd" d="M52.108,7.398c0.117,0.114,0.02,0.222,0,0.364
		c0.232,0.088,0.011-0.271,0.24-0.182c0.1,0.205-0.255,0.257-0.061,0.363c-0.045,0.122-0.248-0.108-0.361-0.121
		c-0.036,0.194,0.217,0.084,0.062,0.242c0.004,0.117,0.224-0.094,0.299,0.061c0.01,0.107-0.072,0.127-0.057,0.242
		c-0.103-0.082-0.205-0.161-0.425-0.121c-0.03-0.421,0.179-0.533,0.06-0.786C51.884,7.377,52.019,7.41,52.108,7.398z"/>
	<path fill-rule="evenodd" clip-rule="evenodd" d="M4.843,8.729C4.492,8.974,4.369,9.072,3.814,9.09
		C4.05,8.863,4.49,8.837,4.843,8.729z"/>
	<path fill-rule="evenodd" clip-rule="evenodd" d="M2.486,9.755c-0.142,0.019-0.114,0.21-0.303,0.182
		C2.047,9.71,2.309,9.441,2.606,9.454C2.341,9.549,2.699,9.946,2.486,9.755z"/>
	<path fill-rule="evenodd" clip-rule="evenodd" d="M49.932,9.635c-0.013,0.633-0.645,1.17-0.967,1.693
		c-1.271,0.041-2.323,0.62-3.326,0.302c-0.523,0.016-1.158,0.43-2.053,0.362c-0.101-0.007-0.214-0.126-0.304-0.121
		c-0.168,0.013-0.326,0.168-0.483,0.182c-0.262,0.022-0.599-0.141-0.904-0.121c-0.57,0.036-1.129,0.355-1.693,0
		c-0.255-0.055-0.64,0.242-0.665-0.121c1.311-0.063,3.35,0.181,4.472-0.483c0.497,0.113,1.021,0.172,1.449,0.06
		c0.572-0.148,1.022-0.712,1.634-0.303C47.92,10.296,49.409,10.525,49.932,9.635z"/>
	<path fill-rule="evenodd" clip-rule="evenodd" d="M36.876,14.47c0.013-0.038,1.062-0.161,1.27,0.121
		C37.787,14.997,37.157,14.739,36.876,14.47z"/>
	<path fill-rule="evenodd" clip-rule="evenodd" d="M14.09,14.955c-0.859,0.7-2.087,1.01-3.506,0.724
		C11.622,15.165,13.055,15.129,14.09,14.955z"/>
</g>
</svg>
