<?xml version="1.0" encoding="utf-8"?>
<!-- Generator: Adobe Illustrator 14.0.0, SVG Export Plug-In . SVG Version: 6.00 Build 43363)  -->
<!DOCTYPE svg PUBLIC "-//W3C//DTD SVG 1.1//EN" "http://www.w3.org/Graphics/SVG/1.1/DTD/svg11.dtd">
<svg version="1.1" id="Layer_1" xmlns="http://www.w3.org/2000/svg" xmlns:xlink="http://www.w3.org/1999/xlink" x="0px" y="0px"
	 width="36px" height="36px" viewBox="0 0 36 36" enable-background="new 0 0 36 36" xml:space="preserve">
<g>
	<path fill="#1C587C" d="M24.625,10.665h-2.361c-0.375,0-0.678,0.302-0.678,0.68v2.359c0,0.375,0.303,0.677,0.678,0.677h2.361
		c0.374,0,0.679-0.302,0.679-0.677v-2.359C25.304,10.967,24.999,10.665,24.625,10.665z"/>
	<path fill="#1C587C" d="M23.884,17.907c0,3.252-2.638,5.893-5.893,5.893s-5.895-2.641-5.895-5.893c0-0.482,0.06-0.95,0.17-1.399
		h-1.589c0,0,0,7.599,0,8.069c0,0.472,0.335,0.666,0.844,0.666h12.917c0.511,0,0.845-0.194,0.845-0.666c0-0.471,0-8.069,0-8.069
		h-1.566C23.825,16.957,23.884,17.425,23.884,17.907z"/>
	<circle fill="#1C587C" cx="18.009" cy="17.971" r="3.701"/>
	<path fill="#1C587C" d="M18,0C8.059,0,0,8.059,0,18c0,9.94,8.059,18,18,18c9.941,0,18-8.06,18-18C36,8.059,27.94,0,18,0z
		 M27.442,25.464c0,1.093-0.887,1.979-1.979,1.979H10.536c-1.093,0-1.979-0.887-1.979-1.979V10.536c0-1.092,0.886-1.979,1.979-1.979
		h14.927c1.093,0,1.979,0.887,1.979,1.979V25.464z"/>
</g>
</svg>
