<svg xmlns="http://www.w3.org/2000/svg" width="36" height="36" viewBox="0 0 36 36"><g fill="#1C587C"><path d="M24.625 10.665h-2.36c-.376 0-.68.302-.68.68v2.36c0 .374.304.676.68.676h2.36c.374 0 .68-.3.68-.676v-2.36c0-.377-.306-.68-.68-.68zM23.884 17.907c0 3.252-2.638 5.893-5.893 5.893s-5.894-2.64-5.894-5.893c0-.482.06-.95.17-1.4h-1.59v8.07c0 .472.336.666.845.666H24.44c.51 0 .845-.194.845-.666v-8.07h-1.566c.108.45.167.918.167 1.4z"/><circle cx="18.009" cy="17.971" r="3.701"/><path d="M18 0C8.06 0 0 8.06 0 18s8.06 18 18 18 18-8.06 18-18S27.94 0 18 0zm9.442 25.464c0 1.093-.887 1.98-1.98 1.98H10.537c-1.093 0-1.98-.888-1.98-1.98V10.536c0-1.092.887-1.98 1.98-1.98h14.927c1.093 0 1.98.888 1.98 1.98v14.928z"/></g></svg>