<?xml version="1.0" encoding="utf-8"?>
<!-- Generator: Adobe Illustrator 14.0.0, SVG Export Plug-In . SVG Version: 6.00 Build 43363)  -->
<!DOCTYPE svg PUBLIC "-//W3C//DTD SVG 1.1//EN" "http://www.w3.org/Graphics/SVG/1.1/DTD/svg11.dtd">
<svg version="1.1" id="Layer_1" xmlns="http://www.w3.org/2000/svg" xmlns:xlink="http://www.w3.org/1999/xlink" x="0px" y="0px"
	 width="36px" height="36px" viewBox="0 0 36 36" enable-background="new 0 0 36 36" xml:space="preserve">
<path fill="#555555" d="M18,0C8.058,0,0,8.06,0,18c0,9.942,8.058,18,18,18c9.94,0,18-8.058,18-18C36,8.06,27.94,0,18,0z
	 M25.646,26.104H9.848c-0.594,0-0.976-0.669-0.976-0.938V12.553c0-0.459,0.543-0.903,0.939-0.903c0.395,0,6.764-0.05,7.652-0.05
	c0.887,0,0.653,0.607,0.283,0.768c-1.062,0.429-2.407,1.542-2.407,1.542h-4.16v9.935h13.206v-3.01c0,0,1.296-1.076,1.58-1.298
	c0.285-0.222,0.68-0.013,0.68,0.222s0.013,4.962,0.013,5.408C26.658,25.611,25.979,26.104,25.646,26.104z M23.437,19.487v-2.333
	c-6.777-0.481-9.516,2.371-9.516,2.371c1.037-7.255,9.516-7.221,9.516-7.221V9.898l6.22,4.813L23.437,19.487z"/>
</svg>
