<svg xmlns="http://www.w3.org/2000/svg" width="36" height="36" viewBox="0 0 36 36"><path fill="#555" d="M18 0C8.058 0 0 8.06 0 18c0 9.942 8.058 18 18 18 9.94 0 18-8.058 18-18 0-9.94-8.06-18-18-18zm7.646 26.104H9.848c-.594 0-.976-.67-.976-.938V12.553c0-.46.543-.903.94-.903.394 0 6.763-.05 7.65-.05.888 0 .654.607.284.768-1.062.43-2.407 1.542-2.407 1.542h-4.16v9.935h13.205v-3.01s1.296-1.076 1.58-1.298c.285-.222.68-.013.68.222s.013 4.96.013 5.407c0 .444-.68.937-1.012.937zm-2.21-6.617v-2.333c-6.776-.48-9.515 2.37-9.515 2.37 1.038-7.254 9.517-7.22 9.517-7.22V9.898l6.22 4.813-6.22 4.777z"/></svg>