<?xml version="1.0" encoding="utf-8"?>
<!-- Generator: Adobe Illustrator 14.0.0, SVG Export Plug-In . SVG Version: 6.00 Build 43363)  -->
<!DOCTYPE svg PUBLIC "-//W3C//DTD SVG 1.1//EN" "http://www.w3.org/Graphics/SVG/1.1/DTD/svg11.dtd">
<svg version="1.1" id="Layer_1" xmlns="http://www.w3.org/2000/svg" xmlns:xlink="http://www.w3.org/1999/xlink" x="0px" y="0px"
	 width="36px" height="36px" viewBox="0 0 36 36" enable-background="new 0 0 36 36" xml:space="preserve">
<path fill="#2C4762" d="M17.999,0C8.06,0,0,8.06,0,18.001C0,27.942,8.06,36,17.999,36C27.942,36,36,27.942,36,18.001
	C36,8.06,27.942,0,17.999,0 M25.052,28.199c-0.958,0.45-1.828,0.765-2.607,0.951c-0.78,0.178-1.623,0.271-2.524,0.271
	c-1.029,0-1.635-0.127-2.425-0.386c-0.789-0.262-1.461-0.633-2.019-1.109c-0.557-0.481-0.943-0.992-1.161-1.532
	c-0.215-0.54-0.323-1.325-0.323-2.354v-7.881h-3.052v-3.182c0.882-0.283,1.906-0.696,2.534-1.231
	c0.633-0.535,1.137-1.178,1.518-1.928c0.381-0.75,0.643-1.708,0.787-2.864h3.196v5.196h5.194v4.01h-5.194v5.762
	c0,1.303-0.02,2.056,0.12,2.425c0.137,0.369,0.481,0.75,0.855,0.973c0.499,0.295,1.065,0.444,1.706,0.444
	c1.139,0,2.271-0.369,3.395-1.109V28.199z"/>
</svg>
