<svg xmlns="http://www.w3.org/2000/svg" width="36" height="36" viewBox="0 0 36 36"><path fill="#2C4762" d="M18 0C8.06 0 0 8.06 0 18c0 9.942 8.06 18 18 18 9.942 0 18-8.058 18-18 0-9.94-8.058-18-18-18m7.052 28.2c-.958.45-1.828.764-2.607.95-.78.178-1.623.27-2.524.27-1.028 0-1.634-.126-2.424-.385-.79-.262-1.46-.633-2.02-1.11-.556-.48-.942-.99-1.16-1.53-.215-.54-.323-1.326-.323-2.355v-7.88H10.94v-3.183c.883-.283 1.907-.696 2.535-1.23.633-.536 1.137-1.18 1.518-1.93.38-.75.643-1.707.787-2.863h3.196v5.196h5.194v4.01h-5.194v5.762c0 1.303-.02 2.056.12 2.425.137.37.48.75.855.973.5.295 1.066.444 1.707.444 1.14 0 2.27-.37 3.395-1.11V28.2z"/></svg>