<svg xmlns="http://www.w3.org/2000/svg" width="36" height="36" viewBox="0 0 36 36"><path fill="#2CA9E1" d="M18 0C8.06 0 0 8.06 0 18s8.06 18 18 18c9.065 0 16.56-6.7 17.813-15.418.12-.594.177-1.206.167-1.84.012-.244.02-.492.02-.742 0-9.94-8.058-18-18-18zm8.285 14.734c.008.167.01.333.01.503 0 5.14-3.91 11.066-11.063 11.066-2.197 0-4.24-.643-5.96-1.75.303.038.612.056.926.056 1.822 0 3.5-.622 4.83-1.666-1.7-.03-3.138-1.155-3.633-2.7.238.047.483.07.733.07.353 0 .696-.048 1.025-.136-1.78-.358-3.12-1.93-3.12-3.813v-.05c.523.29 1.124.467 1.762.486-1.044-.698-1.73-1.887-1.73-3.235 0-.713.19-1.38.526-1.957 1.918 2.354 4.785 3.9 8.016 4.065-.066-.284-.1-.583-.1-.887 0-2.148 1.74-3.89 3.888-3.89 1.118 0 2.13.474 2.837 1.23.89-.174 1.72-.498 2.473-.944-.29.907-.907 1.67-1.71 2.15.786-.09 1.536-.302 2.232-.61-.523.778-1.18 1.463-1.94 2.012z"/></svg>