<?xml version="1.0" encoding="utf-8"?>
<!-- Generator: Adobe Illustrator 14.0.0, SVG Export Plug-In . SVG Version: 6.00 Build 43363)  -->
<!DOCTYPE svg PUBLIC "-//W3C//DTD SVG 1.1//EN" "http://www.w3.org/Graphics/SVG/1.1/DTD/svg11.dtd">
<svg version="1.1" id="Layer_1" xmlns="http://www.w3.org/2000/svg" xmlns:xlink="http://www.w3.org/1999/xlink" x="0px" y="0px"
	 width="36px" height="36px" viewBox="0 0 36 36" enable-background="new 0 0 36 36" xml:space="preserve">
<path fill="#2CA9E1" d="M18,0C8.06,0,0,8.06,0,18s8.06,18,18,18c9.065,0,16.561-6.701,17.813-15.418
	c0.12-0.594,0.177-1.206,0.167-1.839C35.992,18.498,36,18.25,36,18C36,8.06,27.942,0,18,0z M26.285,14.734
	c0.008,0.167,0.01,0.333,0.01,0.503c0,5.139-3.911,11.066-11.063,11.066c-2.197,0-4.24-0.643-5.961-1.749
	c0.304,0.037,0.613,0.055,0.927,0.055c1.822,0,3.499-0.621,4.831-1.665c-1.702-0.029-3.139-1.155-3.634-2.7
	c0.238,0.047,0.483,0.071,0.733,0.071c0.353,0,0.696-0.049,1.025-0.137c-1.78-0.358-3.121-1.93-3.121-3.813c0-0.02,0-0.035,0-0.049
	c0.524,0.29,1.125,0.466,1.763,0.485c-1.044-0.699-1.731-1.888-1.731-3.236c0-0.713,0.191-1.38,0.527-1.957
	c1.917,2.354,4.784,3.901,8.015,4.065c-0.066-0.284-0.101-0.583-0.101-0.887c0-2.148,1.741-3.889,3.889-3.889
	c1.118,0,2.129,0.473,2.837,1.229c0.888-0.174,1.72-0.498,2.472-0.944c-0.291,0.907-0.907,1.67-1.711,2.15
	c0.787-0.091,1.537-0.302,2.233-0.611C27.702,13.5,27.045,14.185,26.285,14.734z"/>
</svg>
